# xmcd
# Copyright (C) 1995-1998 Ti Kan
#
# Track frame offsets:
#       150
#       17720
#       32789
#       52970
#       74246
#       95128
#       113478
#       131346
#       162492
#       176832
#       194454
#       218860
#       242947
#       262859
#       281464
#       298900
#
# Disc length: 4202 seconds
#
# Revision: 0
# Processed by: cddbd v1.5.2PL0 Copyright (c) Steve Scherf et al.
# Submitted via: CD-Import v1.0
#
DISCID=f8106810
DTITLE=Mr: - 
DYEAR=1900
DGENRE=
TTITLE0=Mr/Db: 15
TTITLE1=Mr/Db: 16
TTITLE2=Mr/Db: 17
TTITLE3=Mr/Db: 18
TTITLE4=Mr/Db: 19
TTITLE5=Mr/Db: 20
TTITLE6=Mr/Db: 21
TTITLE7=Mr/Db: 22
TTITLE8=Mr/Db: 23
TTITLE9=Mr/Db: 24
TTITLE10=Mr/Db: 25
TTITLE11=Mr/Db: 26
TTITLE12=Mr/Db: 27
TTITLE13=Mr/Db: 28
TTITLE14=Mr/Db: 29
TTITLE15=Mr/Db: 30
EXTD=
EXTT0=
EXTT1=
EXTT2=
EXTT3=
EXTT4=
EXTT5=
EXTT6=
EXTT7=
EXTT8=
EXTT9=
EXTT10=
EXTT11=
EXTT12=
EXTT13=
EXTT14=
EXTT15=
PLAYORDER=
